<mxfile host="app.diagrams.net" modified="2022-06-21T15:44:47.449Z" agent="5.0 (X11; Linux x86_64) AppleWebKit/537.36 (KHTML, like Gecko) Chrome/102.0.5005.99 Safari/537.36" etag="loM6Rktp8HjOq9R9nWo0" version="20.0.1" type="github">
  <diagram id="UNi9CnteQZk153EJfzz5" name="Page-1">
    <mxGraphModel dx="1314" dy="719" grid="1" gridSize="10" guides="1" tooltips="1" connect="1" arrows="1" fold="1" page="1" pageScale="1" pageWidth="850" pageHeight="1100" math="0" shadow="0">
      <root>
        <mxCell id="0" />
        <mxCell id="1" parent="0" />
        <mxCell id="wRjwMbFhujHI_peXSRdS-2" value="" style="rounded=1;whiteSpace=wrap;html=1;fillColor=#dae8fc;strokeColor=#6c8ebf;" vertex="1" parent="1">
          <mxGeometry x="190" y="80" width="330" height="240" as="geometry" />
        </mxCell>
        <mxCell id="wRjwMbFhujHI_peXSRdS-11" style="edgeStyle=orthogonalEdgeStyle;rounded=0;orthogonalLoop=1;jettySize=auto;html=1;fontSize=18;" edge="1" parent="1" source="wRjwMbFhujHI_peXSRdS-1" target="wRjwMbFhujHI_peXSRdS-10">
          <mxGeometry relative="1" as="geometry" />
        </mxCell>
        <mxCell id="wRjwMbFhujHI_peXSRdS-1" value="&lt;font style=&quot;font-size: 18px;&quot;&gt;Pruning&lt;/font&gt;" style="rounded=1;whiteSpace=wrap;html=1;fillColor=#ffe6cc;strokeColor=#d79b00;" vertex="1" parent="1">
          <mxGeometry x="217" y="230" width="120" height="60" as="geometry" />
        </mxCell>
        <mxCell id="wRjwMbFhujHI_peXSRdS-3" value="" style="rounded=1;whiteSpace=wrap;html=1;fillColor=#fff2cc;strokeColor=#d6b656;" vertex="1" parent="1">
          <mxGeometry x="590" y="80" width="330" height="240" as="geometry" />
        </mxCell>
        <mxCell id="wRjwMbFhujHI_peXSRdS-4" value="&lt;font size=&quot;1&quot; style=&quot;&quot;&gt;&lt;b style=&quot;font-size: 24px;&quot;&gt;Cloud&lt;/b&gt;&lt;/font&gt;" style="text;html=1;align=center;verticalAlign=middle;resizable=0;points=[];autosize=1;strokeColor=none;fillColor=none;" vertex="1" parent="1">
          <mxGeometry x="315" y="90" width="80" height="20" as="geometry" />
        </mxCell>
        <mxCell id="wRjwMbFhujHI_peXSRdS-6" value="&lt;font size=&quot;1&quot; style=&quot;&quot;&gt;&lt;b style=&quot;font-size: 24px;&quot;&gt;Edge&lt;/b&gt;&lt;/font&gt;" style="text;html=1;align=center;verticalAlign=middle;resizable=0;points=[];autosize=1;strokeColor=none;fillColor=none;" vertex="1" parent="1">
          <mxGeometry x="720" y="90" width="70" height="20" as="geometry" />
        </mxCell>
        <mxCell id="wRjwMbFhujHI_peXSRdS-15" style="edgeStyle=orthogonalEdgeStyle;rounded=0;orthogonalLoop=1;jettySize=auto;html=1;entryX=0;entryY=0.5;entryDx=0;entryDy=0;fontSize=18;" edge="1" parent="1" source="wRjwMbFhujHI_peXSRdS-10" target="wRjwMbFhujHI_peXSRdS-14">
          <mxGeometry relative="1" as="geometry" />
        </mxCell>
        <mxCell id="wRjwMbFhujHI_peXSRdS-10" value="&lt;font style=&quot;font-size: 18px;&quot;&gt;Compression&lt;/font&gt;" style="rounded=1;whiteSpace=wrap;html=1;fillColor=#e1d5e7;strokeColor=#9673a6;" vertex="1" parent="1">
          <mxGeometry x="370" y="230" width="120" height="60" as="geometry" />
        </mxCell>
        <mxCell id="wRjwMbFhujHI_peXSRdS-13" style="edgeStyle=orthogonalEdgeStyle;rounded=0;orthogonalLoop=1;jettySize=auto;html=1;entryX=0.5;entryY=0;entryDx=0;entryDy=0;fontSize=18;" edge="1" parent="1" source="wRjwMbFhujHI_peXSRdS-12" target="wRjwMbFhujHI_peXSRdS-1">
          <mxGeometry relative="1" as="geometry" />
        </mxCell>
        <mxCell id="wRjwMbFhujHI_peXSRdS-12" value="&lt;font style=&quot;font-size: 18px;&quot;&gt;Training&lt;/font&gt;" style="rounded=1;whiteSpace=wrap;html=1;fillColor=#f5f5f5;fontColor=#333333;strokeColor=#666666;" vertex="1" parent="1">
          <mxGeometry x="217" y="140" width="120" height="60" as="geometry" />
        </mxCell>
        <mxCell id="wRjwMbFhujHI_peXSRdS-22" style="edgeStyle=orthogonalEdgeStyle;rounded=0;orthogonalLoop=1;jettySize=auto;html=1;entryX=0.5;entryY=0;entryDx=0;entryDy=0;fontSize=18;" edge="1" parent="1" source="wRjwMbFhujHI_peXSRdS-14" target="wRjwMbFhujHI_peXSRdS-17">
          <mxGeometry relative="1" as="geometry" />
        </mxCell>
        <mxCell id="wRjwMbFhujHI_peXSRdS-14" value="&lt;font style=&quot;font-size: 18px;&quot;&gt;Decompression&lt;/font&gt;" style="rounded=1;whiteSpace=wrap;html=1;fillColor=#e1d5e7;strokeColor=#9673a6;" vertex="1" parent="1">
          <mxGeometry x="620.5" y="140" width="130" height="60" as="geometry" />
        </mxCell>
        <mxCell id="wRjwMbFhujHI_peXSRdS-23" style="edgeStyle=orthogonalEdgeStyle;rounded=0;orthogonalLoop=1;jettySize=auto;html=1;fontSize=18;" edge="1" parent="1" source="wRjwMbFhujHI_peXSRdS-17" target="wRjwMbFhujHI_peXSRdS-19">
          <mxGeometry relative="1" as="geometry" />
        </mxCell>
        <mxCell id="wRjwMbFhujHI_peXSRdS-17" value="&lt;font style=&quot;font-size: 18px;&quot;&gt;Quantization&lt;/font&gt;" style="rounded=1;whiteSpace=wrap;html=1;fillColor=#d5e8d4;strokeColor=#82b366;" vertex="1" parent="1">
          <mxGeometry x="625.5" y="230" width="120" height="60" as="geometry" />
        </mxCell>
        <mxCell id="wRjwMbFhujHI_peXSRdS-19" value="&lt;font style=&quot;font-size: 18px;&quot;&gt;Accelerator&lt;br&gt;engine&lt;br&gt;&lt;/font&gt;" style="rounded=1;whiteSpace=wrap;html=1;fillColor=#f8cecc;strokeColor=#b85450;" vertex="1" parent="1">
          <mxGeometry x="780" y="230" width="120" height="60" as="geometry" />
        </mxCell>
      </root>
    </mxGraphModel>
  </diagram>
</mxfile>
